<?xml version="1.0" encoding="utf-8"?>
<!-- Generator: Adobe Illustrator 22.1.0, SVG Export Plug-In . SVG Version: 6.00 Build 0)  -->
<svg version="1.1" id="Layer_1" xmlns="http://www.w3.org/2000/svg" xmlns:xlink="http://www.w3.org/1999/xlink" x="0px" y="0px"
	 viewBox="0 0 641.1 267.3" style="enable-background:new 0 0 641.1 267.3;" xml:space="preserve">
<style type="text/css">
	.st0{fill:#CD2D3D;}
	.st1{clip-path:url(#SVGID_2_);fill:#CD2D3D;}
	.st2{clip-path:url(#SVGID_4_);fill:#CD2D3D;}
	.st3{clip-path:url(#SVGID_6_);fill:#CD2D3D;}
	.st4{clip-path:url(#SVGID_8_);fill:#CD2D3D;}
	.st5{clip-path:url(#SVGID_8_);fill:#295DA8;}
	.st6{fill:#295DA8;}
	.st7{clip-path:url(#SVGID_10_);fill:#295DA8;}
	.st8{clip-path:url(#SVGID_12_);fill:#295DA8;}
	.st9{clip-path:url(#SVGID_14_);fill:#295DA8;}
	.st10{clip-path:url(#SVGID_16_);fill:#295DA8;}
	.st11{clip-path:url(#SVGID_18_);fill:#295DA8;}
	.st12{clip-path:url(#SVGID_20_);fill:#295DA8;}
	.st13{clip-path:url(#SVGID_20_);}
</style>
<polygon class="st0" points="0,169 0,202.7 24.3,202.7 24.3,194.6 9.3,194.6 9.3,189.3 21.7,189.3 21.7,181.8 9.3,181.8 9.3,177.1 
	23.8,177.1 23.8,169 "/>
<path class="st0" d="M49.5,189.9l-3-10.4l-3.2,10.4H49.5z M42.2,169h8.5l11.8,33.6h-9.5l-2.1-6.6h-9.1l-2,6.6h-9.5L42.2,169z"/>
<rect x="51.5" y="229.6" width="98.1" height="5.9"/>
<rect x="495.7" y="229.6" width="98.1" height="5.9"/>
<g>
	<defs>
		<rect id="SVGID_1_" width="641.1" height="267.3"/>
	</defs>
	<clipPath id="SVGID_2_">
		<use xlink:href="#SVGID_1_"  style="overflow:visible;"/>
	</clipPath>
	<path class="st1" d="M91.9,199.9c-2.4,2-5.2,3-8.4,3c-2.2,0-4.3-0.4-6.3-1.2c-2-0.8-3.8-1.9-5.3-3.4c-1.5-1.5-2.7-3.3-3.6-5.4
		c-0.9-2.1-1.3-4.6-1.3-7.3c0-2.4,0.4-4.6,1.3-6.6c0.9-2,2.1-3.8,3.7-5.3c1.6-1.5,3.4-2.7,5.5-3.6s4.4-1.3,6.9-1.3
		c1.5,0,3,0.2,4.4,0.5c1.4,0.3,2.7,0.8,3.9,1.5c1.2,0.6,2.3,1.4,3.2,2.3c1,0.9,1.7,1.9,2.3,3.1l-7,5.3c-0.7-1.3-1.7-2.4-3-3.2
		c-1.3-0.8-2.8-1.2-4.3-1.2c-1.1,0-2.1,0.2-3.1,0.7c-0.9,0.4-1.7,1.1-2.4,1.9c-0.7,0.8-1.2,1.7-1.6,2.8c-0.4,1.1-0.6,2.3-0.6,3.6
		c0,1.3,0.2,2.5,0.6,3.6s0.9,2,1.6,2.8c0.7,0.8,1.5,1.4,2.5,1.8c1,0.4,2,0.6,3.2,0.6c2.7,0,5.1-1.1,7.2-3.3h-5.9v-6.6h14v17.9h-7.7
		V199.9z"/>
</g>
<polygon class="st0" points="109,202.7 109,169 118.3,169 118.3,194.6 133.8,194.6 133.8,202.7 "/>
<polygon class="st0" points="166.1,194.6 166.1,202.7 141.8,202.7 141.8,169 165.6,169 165.6,177.1 151.2,177.1 151.2,181.8 
	163.5,181.8 163.5,189.3 151.2,189.3 151.2,194.6 "/>
<polygon class="st0" points="200,169 208.5,169 211.5,179.4 214.5,169 223.1,169 217.5,185.1 220,192.1 227.3,169 237.4,169 
	224.1,202.7 216.4,202.7 211.5,190.6 206.7,202.7 199,202.7 185.6,169 195.7,169 203.1,192.1 205.5,185.1 "/>
<rect x="244.6" y="169" class="st0" width="9.3" height="33.6"/>
<g>
	<defs>
		<rect id="SVGID_3_" width="641.1" height="267.3"/>
	</defs>
	<clipPath id="SVGID_4_">
		<use xlink:href="#SVGID_3_"  style="overflow:visible;"/>
	</clipPath>
	<path class="st2" d="M273.9,184.3h5.9c0.6,0,1.1-0.3,1.6-0.9c0.5-0.6,0.7-1.5,0.7-2.7c0-1.2-0.3-2.1-0.9-2.7
		c-0.6-0.6-1.1-0.9-1.7-0.9h-5.7V184.3z M264.6,202.7V169h15.6c1.7,0,3.2,0.3,4.6,1c1.4,0.7,2.6,1.6,3.6,2.7c1,1.1,1.8,2.3,2.4,3.7
		c0.6,1.4,0.9,2.8,0.9,4.2c0,2-0.4,3.8-1.3,5.5c-0.9,1.7-2.1,3.1-3.6,4.1l7.2,12.4h-10.5l-6-10.3h-3.5v10.3H264.6z"/>
</g>
<polygon class="st0" points="326,194.6 326,202.7 301.7,202.7 301.7,169 325.5,169 325.5,177.1 311.1,177.1 311.1,181.8 
	323.4,181.8 323.4,189.3 311.1,189.3 311.1,194.6 "/>
<g>
	<defs>
		<rect id="SVGID_5_" width="641.1" height="267.3"/>
	</defs>
	<clipPath id="SVGID_6_">
		<use xlink:href="#SVGID_5_"  style="overflow:visible;"/>
	</clipPath>
	<path class="st3" d="M360.1,184.3h4.9c0.6,0,1.1-0.3,1.6-0.8c0.5-0.5,0.7-1.5,0.7-2.8c0-1.4-0.3-2.3-0.9-2.8
		c-0.6-0.5-1.1-0.8-1.7-0.8h-4.7V184.3z M350.7,202.7V169h14.7c1.7,0,3.2,0.3,4.6,1c1.4,0.7,2.6,1.6,3.6,2.7c1,1.1,1.8,2.3,2.4,3.7
		c0.6,1.4,0.9,2.8,0.9,4.2c0,1.5-0.3,2.9-0.8,4.3c-0.5,1.4-1.3,2.7-2.3,3.7c-1,1.1-2.2,2-3.5,2.6c-1.4,0.6-2.9,1-4.6,1h-5.6v10.3
		H350.7z"/>
	<path class="st3" d="M394.7,184.3h5.9c0.6,0,1.1-0.3,1.6-0.9c0.5-0.6,0.7-1.5,0.7-2.7c0-1.2-0.3-2.1-0.9-2.7
		c-0.6-0.6-1.1-0.9-1.7-0.9h-5.7V184.3z M385.4,202.7V169H401c1.7,0,3.2,0.3,4.6,1c1.4,0.7,2.6,1.6,3.6,2.7c1,1.1,1.8,2.3,2.4,3.7
		c0.6,1.4,0.9,2.8,0.9,4.2c0,2-0.4,3.8-1.3,5.5c-0.9,1.7-2.1,3.1-3.6,4.1l7.2,12.4h-10.5l-6-10.3h-3.5v10.3H385.4z"/>
	<path class="st3" d="M429.7,185.9c0,1.1,0.2,2.2,0.5,3.3c0.3,1.1,0.8,2,1.4,2.8c0.6,0.8,1.4,1.5,2.4,2c1,0.5,2.1,0.8,3.5,0.8
		c1.3,0,2.5-0.3,3.5-0.8c1-0.5,1.8-1.2,2.4-2c0.6-0.8,1.1-1.8,1.4-2.9c0.3-1.1,0.5-2.2,0.5-3.3c0-1.1-0.2-2.2-0.5-3.3
		c-0.3-1.1-0.8-2-1.5-2.8c-0.7-0.8-1.5-1.5-2.4-1.9c-1-0.5-2.1-0.7-3.4-0.7c-1.3,0-2.5,0.3-3.5,0.8c-1,0.5-1.8,1.2-2.4,2
		c-0.6,0.8-1.1,1.8-1.4,2.8C429.9,183.7,429.7,184.8,429.7,185.9 M437.4,203c-2.6,0-4.9-0.5-7-1.5c-2.1-1-3.9-2.3-5.4-3.9
		c-1.5-1.6-2.7-3.4-3.5-5.5c-0.8-2-1.2-4.2-1.2-6.3c0-2.2,0.4-4.3,1.3-6.4c0.9-2,2.1-3.9,3.6-5.4c1.6-1.6,3.4-2.8,5.5-3.7
		c2.1-0.9,4.4-1.4,7-1.4c2.6,0,4.9,0.5,7,1.5c2.1,1,3.9,2.3,5.4,3.9c1.5,1.6,2.7,3.4,3.5,5.5c0.8,2,1.2,4.2,1.2,6.3
		c0,2.2-0.4,4.3-1.3,6.4c-0.9,2-2.1,3.8-3.6,5.4c-1.5,1.6-3.4,2.8-5.5,3.8C442.3,202.5,439.9,203,437.4,203"/>
	<path class="st3" d="M484.3,185.8c0-1.3-0.2-2.5-0.5-3.6c-0.4-1.1-0.9-2-1.5-2.7c-0.7-0.8-1.5-1.4-2.4-1.8c-1-0.4-2-0.6-3.2-0.6
		h-3.7v17.5h3.7c1.2,0,2.3-0.2,3.3-0.7c1-0.4,1.8-1.1,2.4-1.8c0.7-0.8,1.1-1.7,1.5-2.8C484.1,188.2,484.3,187.1,484.3,185.8
		 M463.5,202.7V169h13.1c2.8,0,5.3,0.4,7.4,1.3c2.1,0.9,3.9,2.1,5.4,3.6c1.4,1.5,2.5,3.3,3.3,5.3c0.7,2,1.1,4.2,1.1,6.5
		c0,2.6-0.4,4.9-1.2,6.9c-0.8,2.1-2,3.8-3.5,5.3c-1.5,1.5-3.3,2.6-5.4,3.4c-2.1,0.8-4.5,1.2-7,1.2H463.5z"/>
	<path class="st3" d="M517.5,194.8c1.1,0,2-0.2,2.8-0.7c0.8-0.5,1.4-1.1,1.9-1.9c0.5-0.8,0.8-1.7,1.1-2.7c0.2-1,0.3-2.1,0.3-3.2V169
		h9.3v17.3c0,2.3-0.3,4.5-0.9,6.6c-0.6,2-1.6,3.8-2.8,5.3c-1.3,1.5-2.9,2.7-4.8,3.5c-1.9,0.9-4.2,1.3-6.8,1.3c-2.7,0-5-0.4-7-1.3
		c-1.9-0.9-3.5-2.1-4.8-3.6c-1.2-1.5-2.2-3.3-2.7-5.3c-0.6-2-0.9-4.1-0.9-6.4V169h9.3v17.3c0,1.1,0.1,2.2,0.3,3.2
		c0.2,1,0.6,1.9,1.1,2.7c0.5,0.8,1.1,1.4,1.8,1.8C515.5,194.5,516.4,194.8,517.5,194.8"/>
	<path class="st3" d="M541.2,185.6c0-2.1,0.4-4.1,1.2-6.1c0.8-2,1.9-3.8,3.4-5.4c1.5-1.6,3.3-2.9,5.5-3.8c2.1-1,4.6-1.5,7.3-1.5
		c3.3,0,6.1,0.7,8.6,2c2.4,1.3,4.2,3.1,5.4,5.3l-7.1,5c-0.3-0.8-0.7-1.5-1.3-2c-0.5-0.5-1.1-1-1.7-1.3c-0.6-0.3-1.3-0.5-2-0.7
		c-0.7-0.1-1.4-0.2-2-0.2c-1.3,0-2.5,0.3-3.5,0.8c-1,0.5-1.8,1.2-2.4,2c-0.6,0.8-1.1,1.8-1.4,2.8c-0.3,1.1-0.5,2.1-0.5,3.2
		c0,1.2,0.2,2.3,0.5,3.4c0.4,1.1,0.9,2,1.5,2.8c0.7,0.8,1.5,1.5,2.5,2c1,0.5,2.1,0.7,3.3,0.7c0.6,0,1.3-0.1,2-0.2
		c0.7-0.1,1.3-0.4,1.9-0.7c0.6-0.3,1.2-0.8,1.7-1.3s0.9-1.2,1.2-1.9l7.6,4.5c-0.5,1.2-1.3,2.3-2.3,3.3c-1,1-2.2,1.8-3.5,2.5
		c-1.3,0.7-2.7,1.2-4.3,1.5c-1.5,0.3-3,0.5-4.4,0.5c-2.5,0-4.8-0.5-6.9-1.5c-2.1-1-3.9-2.3-5.4-4c-1.5-1.6-2.7-3.5-3.5-5.6
		C541.6,189.8,541.2,187.7,541.2,185.6"/>
</g>
<polygon class="st0" points="607.5,177.1 597.7,177.1 597.7,202.7 588.3,202.7 588.3,177.1 578.5,177.1 578.5,169 607.5,169 "/>
<g>
	<defs>
		<rect id="SVGID_7_" width="641.1" height="267.3"/>
	</defs>
	<clipPath id="SVGID_8_">
		<use xlink:href="#SVGID_7_"  style="overflow:visible;"/>
	</clipPath>
	<path class="st4" d="M636.3,180c-1-0.6-2-1.1-3-1.5c-0.9-0.4-1.8-0.7-2.9-1.1c-1.1-0.3-2.1-0.5-3.1-0.5c-0.8,0-1.5,0.1-2,0.4
		s-0.7,0.7-0.7,1.3c0,0.4,0.1,0.8,0.4,1.1s0.7,0.5,1.2,0.8c0.5,0.2,1.2,0.5,2,0.7c0.8,0.2,1.7,0.5,2.7,0.8c1.6,0.5,3,1,4.2,1.6
		c1.3,0.6,2.3,1.2,3.2,2c0.9,0.8,1.6,1.7,2.1,2.8c0.5,1.1,0.7,2.4,0.7,4c0,2-0.4,3.7-1.1,5.1c-0.8,1.4-1.7,2.5-3,3.3
		c-1.2,0.8-2.6,1.4-4.2,1.8c-1.6,0.4-3.1,0.5-4.7,0.5c-1.2,0-2.5-0.1-3.8-0.3c-1.3-0.2-2.6-0.5-3.9-0.8c-1.3-0.3-2.5-0.8-3.7-1.2
		c-1.2-0.5-2.3-1-3.3-1.6l4-8.1c1.1,0.7,2.3,1.3,3.5,1.8c1,0.5,2.2,0.9,3.5,1.3c1.3,0.4,2.6,0.6,4,0.6c1,0,1.7-0.1,2.1-0.4
		c0.4-0.3,0.6-0.6,0.6-1.1c0-0.5-0.2-0.9-0.6-1.2c-0.4-0.3-1-0.6-1.7-0.9c-0.7-0.3-1.5-0.5-2.4-0.8c-0.9-0.3-1.9-0.6-2.9-0.9
		c-1.5-0.5-2.8-1-3.9-1.6c-1.1-0.6-2-1.2-2.7-2c-0.7-0.7-1.2-1.6-1.6-2.5c-0.3-0.9-0.5-2-0.5-3.3c0-1.9,0.3-3.5,1-4.9
		c0.7-1.4,1.6-2.6,2.8-3.6c1.2-0.9,2.5-1.7,4.1-2.2c1.5-0.5,3.1-0.7,4.8-0.7c1.2,0,2.5,0.1,3.6,0.4c1.2,0.2,2.3,0.5,3.4,0.9
		c1.1,0.4,2.1,0.8,3.1,1.2c1,0.4,1.8,0.8,2.6,1.2L636.3,180z"/>
	<path class="st5" d="M170.5,237.2c-0.9-0.5-1.6-1.3-2.1-2.3c-0.5-1-0.7-2.2-0.7-3.5c0-1.4,0.2-2.5,0.7-3.5c0.5-1,1.2-1.7,2.1-2.3
		c0.9-0.5,2-0.8,3.2-0.8c0.9,0,1.7,0.1,2.5,0.4c0.8,0.3,1.4,0.7,2,1.2l-0.6,1.1c-0.6-0.5-1.2-0.9-1.9-1.1c-0.6-0.2-1.3-0.3-2-0.3
		c-1.4,0-2.6,0.5-3.3,1.4c-0.8,0.9-1.2,2.2-1.2,3.9c0,1.7,0.4,3,1.2,4c0.8,0.9,1.9,1.4,3.3,1.4c0.7,0,1.4-0.1,2-0.3
		c0.6-0.2,1.2-0.6,1.9-1.1l0.6,1.1c-0.5,0.5-1.2,1-2,1.2c-0.8,0.3-1.6,0.4-2.5,0.4C172.5,238,171.4,237.7,170.5,237.2"/>
</g>
<polygon class="st6" points="184.4,237.9 184.4,224.9 185.9,224.9 185.9,236.6 192.5,236.6 192.5,237.9 "/>
<path class="st6" d="M200.1,233.3h5.8l-2.9-6.7L200.1,233.3z M207.8,237.9l-1.4-3.3h-6.8l-1.5,3.3h-1.6l5.8-12.9h1.3l5.8,12.9H207.8
	z"/>
<g>
	<defs>
		<rect id="SVGID_9_" width="641.1" height="267.3"/>
	</defs>
	<clipPath id="SVGID_10_">
		<use xlink:href="#SVGID_9_"  style="overflow:visible;"/>
	</clipPath>
	<path class="st7" d="M214.2,236.4l0.6-1.1c0.7,0.5,1.3,0.9,2,1.2c0.7,0.2,1.5,0.3,2.4,0.3c1.1,0,1.9-0.2,2.4-0.6
		c0.6-0.4,0.9-1,0.9-1.7c0-0.4-0.1-0.8-0.4-1.1c-0.3-0.3-0.6-0.5-1.1-0.6c-0.4-0.2-1-0.3-1.8-0.5c-1-0.2-1.8-0.5-2.5-0.7
		c-0.6-0.3-1.2-0.6-1.6-1.1c-0.4-0.5-0.6-1.1-0.6-1.9c0-0.7,0.2-1.4,0.6-2s0.9-1,1.7-1.3s1.6-0.5,2.5-0.5c0.9,0,1.8,0.1,2.5,0.4
		c0.8,0.3,1.4,0.7,2,1.2l-0.6,1.1c-0.6-0.5-1.2-0.9-1.9-1.1s-1.3-0.4-2.1-0.4c-1,0-1.8,0.2-2.4,0.6c-0.6,0.4-0.9,1-0.9,1.8
		c0,0.7,0.2,1.1,0.8,1.5c0.5,0.3,1.3,0.6,2.3,0.9c1.1,0.3,2,0.5,2.7,0.7c0.6,0.2,1.2,0.6,1.6,1c0.4,0.5,0.6,1.1,0.6,1.8
		c0,0.7-0.2,1.4-0.6,1.9c-0.4,0.6-1,1-1.7,1.3c-0.7,0.3-1.6,0.5-2.6,0.5C217,238,215.4,237.5,214.2,236.4"/>
	<path class="st7" d="M229.3,236.4l0.6-1.1c0.6,0.5,1.3,0.9,2,1.2c0.7,0.2,1.5,0.3,2.4,0.3c1.1,0,1.9-0.2,2.4-0.6
		c0.6-0.4,0.9-1,0.9-1.7c0-0.4-0.1-0.8-0.4-1.1c-0.3-0.3-0.6-0.5-1.1-0.6c-0.4-0.2-1-0.3-1.8-0.5c-1-0.2-1.8-0.5-2.5-0.7
		c-0.6-0.3-1.2-0.6-1.6-1.1c-0.4-0.5-0.6-1.1-0.6-1.9c0-0.7,0.2-1.4,0.6-2c0.4-0.6,0.9-1,1.7-1.3s1.6-0.5,2.5-0.5
		c0.9,0,1.8,0.1,2.5,0.4c0.8,0.3,1.4,0.7,2,1.2l-0.6,1.1c-0.6-0.5-1.2-0.9-1.9-1.1c-0.6-0.2-1.3-0.4-2.1-0.4c-1,0-1.8,0.2-2.4,0.6
		c-0.6,0.4-0.9,1-0.9,1.8c0,0.7,0.2,1.1,0.8,1.5c0.5,0.3,1.3,0.6,2.3,0.9c1.1,0.3,2,0.5,2.7,0.7c0.6,0.2,1.2,0.6,1.6,1
		c0.4,0.5,0.6,1.1,0.6,1.8c0,0.7-0.2,1.4-0.6,1.9c-0.4,0.6-1,1-1.7,1.3c-0.7,0.3-1.6,0.5-2.6,0.5C232.2,238,230.5,237.5,229.3,236.4
		"/>
</g>
<rect x="245.2" y="224.9" class="st6" width="1.5" height="12.9"/>
<g>
	<defs>
		<rect id="SVGID_11_" width="641.1" height="267.3"/>
	</defs>
	<clipPath id="SVGID_12_">
		<use xlink:href="#SVGID_11_"  style="overflow:visible;"/>
	</clipPath>
	<path class="st8" d="M256,237.2c-0.9-0.5-1.6-1.3-2.1-2.3c-0.5-1-0.7-2.2-0.7-3.5c0-1.4,0.2-2.5,0.7-3.5c0.5-1,1.2-1.7,2.1-2.3
		c0.9-0.5,2-0.8,3.2-0.8c0.9,0,1.7,0.1,2.5,0.4c0.8,0.3,1.4,0.7,2,1.2l-0.6,1.1c-0.6-0.5-1.2-0.9-1.9-1.1s-1.3-0.3-2-0.3
		c-1.4,0-2.6,0.5-3.3,1.4c-0.8,0.9-1.2,2.2-1.2,3.9c0,1.7,0.4,3,1.2,4c0.8,0.9,1.9,1.4,3.3,1.4c0.7,0,1.4-0.1,2-0.3
		c0.6-0.2,1.2-0.6,1.9-1.1l0.6,1.1c-0.5,0.5-1.2,1-2,1.2c-0.8,0.3-1.6,0.4-2.5,0.4C258,238,256.9,237.7,256,237.2"/>
	<path class="st8" d="M280.7,237.2c-0.9-0.5-1.6-1.3-2.1-2.3c-0.5-1-0.7-2.2-0.7-3.5c0-1.4,0.2-2.5,0.7-3.5c0.5-1,1.2-1.7,2.1-2.3
		c0.9-0.5,2-0.8,3.2-0.8c0.9,0,1.7,0.1,2.5,0.4c0.8,0.3,1.4,0.7,2,1.2l-0.6,1.1c-0.6-0.5-1.2-0.9-1.9-1.1c-0.6-0.2-1.3-0.3-2-0.3
		c-1.4,0-2.6,0.5-3.3,1.4c-0.8,0.9-1.2,2.2-1.2,3.9c0,1.7,0.4,3,1.2,4c0.8,0.9,1.9,1.4,3.3,1.4c0.7,0,1.4-0.1,2-0.3
		c0.6-0.2,1.2-0.6,1.9-1.1l0.6,1.1c-0.6,0.5-1.2,1-2,1.2c-0.8,0.3-1.6,0.4-2.5,0.4C282.7,238,281.7,237.7,280.7,237.2"/>
</g>
<path class="st6" d="M296.6,233.3h5.8l-2.9-6.7L296.6,233.3z M304.3,237.9l-1.4-3.3H296l-1.5,3.3H293l5.8-12.9h1.3l5.8,12.9H304.3z"
	/>
<g>
	<defs>
		<rect id="SVGID_13_" width="641.1" height="267.3"/>
	</defs>
	<clipPath id="SVGID_14_">
		<use xlink:href="#SVGID_13_"  style="overflow:visible;"/>
	</clipPath>
	<path class="st9" d="M316.6,231c2,0,3-0.8,3-2.4c0-0.8-0.2-1.4-0.7-1.8c-0.5-0.4-1.3-0.6-2.3-0.6H313v4.8H316.6z M321.8,237.9h-1.6
		l-1.6-4.3c-0.2-0.5-0.5-0.9-0.8-1.1c-0.4-0.2-0.8-0.3-1.5-0.3H313v5.7h-1.5v-12.9h5.2c1.4,0,2.5,0.3,3.2,0.9
		c0.8,0.6,1.1,1.5,1.1,2.7c0,0.8-0.2,1.6-0.7,2.1c-0.5,0.6-1.1,1-1.9,1.2c0.4,0.1,0.7,0.2,1,0.5c0.3,0.3,0.5,0.6,0.7,1.1
		L321.8,237.9z"/>
</g>
<polygon class="st6" points="345.8,224.9 347.3,224.9 347.3,237.9 345.8,237.9 345.8,231.9 337.9,231.9 337.9,237.9 336.4,237.9 
	336.4,224.9 337.9,224.9 337.9,230.7 345.8,230.7 "/>
<path class="st6" d="M356.5,233.3h5.8l-2.9-6.7L356.5,233.3z M364.2,237.9l-1.4-3.3h-6.8l-1.5,3.3h-1.6l5.8-12.9h1.3l5.8,12.9H364.2
	z"/>
<g>
	<defs>
		<rect id="SVGID_15_" width="641.1" height="267.3"/>
	</defs>
	<clipPath id="SVGID_16_">
		<use xlink:href="#SVGID_15_"  style="overflow:visible;"/>
	</clipPath>
	<path class="st10" d="M376.5,231c2,0,3-0.8,3-2.4c0-0.8-0.2-1.4-0.7-1.8c-0.5-0.4-1.3-0.6-2.3-0.6h-3.6v4.8H376.5z M381.7,237.9
		h-1.6l-1.6-4.3c-0.2-0.5-0.5-0.9-0.8-1.1c-0.3-0.2-0.8-0.3-1.5-0.3h-3.3v5.7h-1.5v-12.9h5.2c1.4,0,2.5,0.3,3.2,0.9
		c0.8,0.6,1.1,1.5,1.1,2.7c0,0.8-0.2,1.6-0.7,2.1c-0.5,0.6-1.1,1-1.9,1.2c0.4,0.1,0.7,0.2,1,0.5c0.3,0.3,0.5,0.6,0.7,1.1
		L381.7,237.9z"/>
</g>
<polygon class="st6" points="396.9,224.9 398.3,224.9 398.3,237.9 397.2,237.9 389.2,227.4 389.2,237.9 387.8,237.9 387.8,224.9 
	389,224.9 396.9,235.3 "/>
<polygon class="st6" points="405.2,237.9 405.2,224.9 413.5,224.9 413.5,226.2 406.7,226.2 406.7,230.7 413.1,230.7 413.1,231.9 
	406.7,231.9 406.7,236.6 413.5,236.6 413.5,237.9 "/>
<g>
	<defs>
		<rect id="SVGID_17_" width="641.1" height="267.3"/>
	</defs>
	<clipPath id="SVGID_18_">
		<use xlink:href="#SVGID_17_"  style="overflow:visible;"/>
	</clipPath>
	<path class="st11" d="M418.8,236.4l0.6-1.1c0.7,0.5,1.3,0.9,2,1.2c0.7,0.2,1.5,0.3,2.4,0.3c1.1,0,1.9-0.2,2.4-0.6
		c0.6-0.4,0.9-1,0.9-1.7c0-0.4-0.1-0.8-0.4-1.1c-0.3-0.3-0.6-0.5-1.1-0.6s-1-0.3-1.8-0.5c-1-0.2-1.8-0.5-2.5-0.7
		c-0.6-0.3-1.2-0.6-1.6-1.1c-0.4-0.5-0.6-1.1-0.6-1.9c0-0.7,0.2-1.4,0.6-2c0.4-0.6,0.9-1,1.7-1.3c0.7-0.3,1.6-0.5,2.5-0.5
		c0.9,0,1.8,0.1,2.5,0.4c0.8,0.3,1.4,0.7,2,1.2l-0.6,1.1c-0.6-0.5-1.2-0.9-1.9-1.1c-0.6-0.2-1.3-0.4-2.1-0.4c-1,0-1.8,0.2-2.4,0.6
		c-0.6,0.4-0.9,1-0.9,1.8c0,0.7,0.2,1.1,0.8,1.5c0.5,0.3,1.3,0.6,2.3,0.9c1.1,0.3,2,0.5,2.7,0.7s1.2,0.6,1.6,1
		c0.4,0.5,0.6,1.1,0.6,1.8c0,0.7-0.2,1.4-0.6,1.9c-0.4,0.6-1,1-1.7,1.3c-0.7,0.3-1.6,0.5-2.6,0.5C421.7,238,420,237.5,418.8,236.4"
		/>
	<path class="st11" d="M434,236.4l0.6-1.1c0.7,0.5,1.3,0.9,2,1.2c0.7,0.2,1.5,0.3,2.4,0.3c1.1,0,1.9-0.2,2.4-0.6
		c0.6-0.4,0.9-1,0.9-1.7c0-0.4-0.1-0.8-0.4-1.1c-0.3-0.3-0.6-0.5-1.1-0.6s-1-0.3-1.8-0.5c-1-0.2-1.8-0.5-2.5-0.7
		c-0.6-0.3-1.2-0.6-1.6-1.1c-0.4-0.5-0.6-1.1-0.6-1.9c0-0.7,0.2-1.4,0.6-2c0.4-0.6,0.9-1,1.7-1.3c0.7-0.3,1.6-0.5,2.5-0.5
		c0.9,0,1.8,0.1,2.5,0.4c0.8,0.3,1.4,0.7,2,1.2l-0.6,1.1c-0.6-0.5-1.2-0.9-1.9-1.1c-0.6-0.2-1.3-0.4-2.1-0.4c-1,0-1.8,0.2-2.4,0.6
		c-0.6,0.4-0.9,1-0.9,1.8c0,0.7,0.2,1.1,0.8,1.5c0.5,0.3,1.3,0.6,2.3,0.9c1.1,0.3,2,0.5,2.7,0.7s1.2,0.6,1.6,1
		c0.4,0.5,0.6,1.1,0.6,1.8c0,0.7-0.2,1.4-0.6,1.9c-0.4,0.6-1,1-1.7,1.3c-0.7,0.3-1.6,0.5-2.6,0.5C436.8,238,435.2,237.5,434,236.4"
		/>
</g>
<polygon class="st6" points="449.8,237.9 449.8,224.9 458.1,224.9 458.1,226.2 451.3,226.2 451.3,230.7 457.8,230.7 457.8,231.9 
	451.3,231.9 451.3,236.6 458.1,236.6 458.1,237.9 "/>
<g>
	<defs>
		<rect id="SVGID_19_" width="641.1" height="267.3"/>
	</defs>
	<clipPath id="SVGID_20_">
		<use xlink:href="#SVGID_19_"  style="overflow:visible;"/>
	</clipPath>
	<path class="st12" d="M463.4,236.4l0.6-1.1c0.7,0.5,1.3,0.9,2,1.2c0.7,0.2,1.5,0.3,2.4,0.3c1.1,0,1.9-0.2,2.4-0.6
		c0.6-0.4,0.9-1,0.9-1.7c0-0.4-0.1-0.8-0.4-1.1c-0.3-0.3-0.6-0.5-1.1-0.6s-1-0.3-1.8-0.5c-1-0.2-1.8-0.5-2.5-0.7
		c-0.6-0.3-1.2-0.6-1.6-1.1c-0.4-0.5-0.6-1.1-0.6-1.9c0-0.7,0.2-1.4,0.6-2c0.4-0.6,0.9-1,1.7-1.3c0.7-0.3,1.6-0.5,2.5-0.5
		c0.9,0,1.8,0.1,2.5,0.4c0.8,0.3,1.4,0.7,2,1.2l-0.6,1.1c-0.6-0.5-1.2-0.9-1.9-1.1c-0.6-0.2-1.3-0.4-2.1-0.4c-1,0-1.8,0.2-2.4,0.6
		c-0.6,0.4-0.9,1-0.9,1.8c0,0.7,0.3,1.1,0.8,1.5c0.5,0.3,1.3,0.6,2.3,0.9c1.1,0.3,2,0.5,2.7,0.7s1.2,0.6,1.6,1
		c0.4,0.5,0.6,1.1,0.6,1.8c0,0.7-0.2,1.4-0.6,1.9c-0.4,0.6-1,1-1.7,1.3c-0.7,0.3-1.6,0.5-2.6,0.5C466.3,238,464.6,237.5,463.4,236.4
		"/>
	<path class="st13" d="M426.1,17h-13.5c1.4-1.9,2.4-4.3,2.8-7.2l18.2,0.1C432.6,15.5,428.5,17,426.1,17 M414.8,30.1h-18.1
		c1.8-2,3.1-4.4,3.7-7.1h24.2C423.2,27.1,419.3,30.1,414.8,30.1 M414.8,36.1c-1.2,4.2-5,7.1-9.5,7.1h-26.2c1.8-2,3.1-4.4,3.7-7.1
		H414.8z M401.4,52.8c-2.5,2.4-7,3.6-13.3,3.5h-25.4c1.8-2,3-4.5,3.5-7.1h37.3C403.1,50.6,402.4,51.8,401.4,52.8 M386.8,66
		c-2,2.1-4.9,3.4-7.9,3.4h-28.7c1.9-2,3.1-4.5,3.5-7.1h34.3c0.3,0,0.7,0,1,0c0,0,0,0,0,0C388.5,63.9,387.6,65.2,386.8,66
		 M358.1,103.9l-21.8-16.6l2.2-6.1l33.2,22.3C367.8,106.6,362.3,106.8,358.1,103.9 M339,114.3c-3.2-6.2-4.2-12.7-4.5-17.1
		c3.5,2.8,8.2,7.5,11.4,13.7c3.2,6.2,4.2,12.7,4.5,17.1C346.9,125.1,342.2,120.5,339,114.3 M322.9,138.5c-1.8-3.8-4-9.5-4.1-16
		l-0.1-10.6l-0.1,0.2c-0.1-4.4-0.1-9.7-0.2-14.7c1.1,1.5,1.8,2.4,1.9,2.6l2.3,2.9l2.4-2.8c0.1-0.1,0.3-0.3,0.6-0.7l0.9,23.1
		C326.7,128.8,324.7,134.7,322.9,138.5 M305.9,114.5c-3.5,6-8.5,10.3-12.2,13c0.6-4.4,2-10.9,5.5-16.8c3.5-6,8.5-10.3,12.2-13
		C310.8,102.1,309.4,108.5,305.9,114.5 M288.1,104.2c-2.5,1.7-5.4,2.4-8.4,1.9c-1.9-0.3-3.7-1.1-5.2-2.3l33.2-22.1l2.2,5.9
		L288.1,104.2z M257.4,66.3c-0.8-0.8-1.7-2.1-2.1-3.7c0,0,0,0,0.1,0c0.3,0,0.6,0,1,0h35.5c0.4,2.6,1.6,5.1,3.4,7.1h-29.9
		C262.3,69.7,259.3,68.5,257.4,66.3 M240.9,49.5h38.3c0.5,2.6,1.7,5.1,3.4,7.1h-26.6c-6.2,0.1-10.6-1-13-3.4
		C242,52.3,241.3,51,240.9,49.5 M230.6,36.4h31.3c0.5,2.7,1.8,5.1,3.6,7.1H240C235.5,43.5,231.8,40.6,230.6,36.4 M219.9,23.4h25.1
		c0.5,2.7,1.8,5.1,3.6,7.1h-19.3C224.9,30.5,221.2,27.5,219.9,23.4 M218,17.4c-2.3,0-6.4-1.6-7.5-7.1l19.4-0.1
		c0.4,2.9,1.4,5.3,2.8,7.2H218z M238.6,17.4c-2.2-1.2-4-3.6-4.6-7.2l26.9-0.1v0c0.6,0,1.1,0,1.7,0l0.5,0c8.2,0.1,14.9,2.3,21.8,7.3
		H238.6z M299.7,30.5h-44.5c-2.9-1.4-5.2-4-6-7.1H292L299.7,30.5z M356.2,56.3h-9.8c0.4-2.3,0.6-4.7,0.7-7.1h15
		c-0.5,2-1.6,3.7-3,5.1C358.2,55.2,357.2,55.8,356.2,56.3 M304.4,47.6c0-3.9,2.8-8.9,7.7-13.6l1.4,1.6l3.1-3.3l5.4,9.3l5.8-9.3
		l3.1,3.2l2.1-2c2.8,2.7,8.1,8.5,8.1,14c0,18.7-12.9,38.2-18.3,45.5C317.3,85.5,304.4,65.4,304.4,47.6 M310.2,26l2.8-12.8
		c2.2-7.1,4.1-7.2,9.3-7.2c0.6,0,1.3,0,1.9,0c3.7-0.1,4.8-0.1,7.7,7.3l3.1,12.9l-4,3.7l-4-4.2l-5,8.1l-4.7-8.1l-3.8,4L310.2,26z
		 M272,43.5c-2.9-1.4-5.2-4-6-7.1h35.8l0,0.1l0.3,0.1c-1.4,2.1-2.5,4.4-3.2,6.9H272z M286.4,54.7c-1.5-1.4-2.5-3.2-3-5.2h15
		c0.1,2.4,0.4,4.7,0.8,7.1h-10.1C288.1,56.1,287.2,55.5,286.4,54.7 M298.3,67.1c-0.9-1-2-2.5-2.4-4.5h4.7c0.7,2.4,1.5,4.8,2.4,7.1
		h-1C300.6,69.1,299.3,68.2,298.3,67.1 M343.3,69.4h-0.5c0.9-2.3,1.6-4.7,2.3-7.1h4.5c-0.4,2-1.4,3.4-2.4,4.4
		C346.1,67.8,344.8,68.8,343.3,69.4 M372.4,43.2h-25.9c-0.7-2.4-1.8-4.6-3.1-6.6l0.4-0.1l-0.1-0.4h34.9
		C377.7,39.3,375.4,41.9,372.4,43.2 M352.2,23h44c-0.9,3.2-3.2,5.8-6.2,7.1h-45.6L352.2,23z M406.7,17h-47.4
		c6.9-5,13.6-7.2,21.8-7.3l0.5,0c0.6,0,1.1,0,1.7,0l0,0l28.1,0.1C410.8,13.5,408.9,15.8,406.7,17 M380,3.8L380,3.8
		c-14.3,0.5-23.3,7-30.3,13.3l-8.8,8l-1.8-7.6c0.1,0,0.1,0,0.2,0c1.1,0.1,2.2,0,3.2-0.2c0.7-0.1,1.5-0.4,1.7-1
		c-1.7-0.3-3.4-0.9-5-1.6l5.3,0c0,0,2.1-0.2,4,2.5c0.2-3.2,0-4.8-1.1-7.1s-3.5-3.1-5.1-3.1h-6.6c-3.5-6.7-6.9-7.2-11.7-7.1
		c-0.5,0-1,0-1.7,0h-0.1c-5.7,0-11.6,0.1-15.1,11.6L304,26.2l-9.5-8.7c-7-6.4-16-12.8-30.3-13.3v0l-60,0.2v3
		c0,8.3,4.3,13.4,9.4,15.3c0.8,6.2,4.9,11.1,10.6,13c0.8,6.1,4.9,11.1,10.4,13c0.4,3.6,1.8,6.6,4.1,8.9c2.4,2.4,5.9,3.9,10.3,4.6
		c0.3,3.1,1.6,5.9,3.8,8.3c3.1,3.4,7.7,5.3,12.4,5.3h40.2c0,0.1,0.1,0.2,0.1,0.2l-40.1,26.7l1.8,2.5c2.7,3.7,6.7,6.2,11.3,7
		c1,0.2,1.9,0.2,2.9,0.2c3.6,0,7.1-1.1,10.1-3.2l2.7-2.1c-0.1,0.2-0.3,0.4-0.4,0.7c-7.1,12-6.7,25.1-6.7,25.7l0.2,4.7l4.2-2.2
		c0.5-0.3,12.3-6.3,19.4-18.3c0.5-0.9,1-1.8,1.5-2.8c0,0.9,0,1.8,0,2.6c0,1.6,0.1,2.9,0.1,3.8c0,0.5,0,0.9,0.1,1.4h0
		c0.2,13.1,7.4,23.5,7.7,23.9l2.6,3.6l2.5-3.7c0.3-0.4,7.3-11,7.1-24.2l-0.3-7.9c0.4,0.9,0.8,1.8,1.3,2.7
		c6.4,12.4,17.8,19.1,18.3,19.4l4.1,2.4l0.4-4.7c0.1-0.6,1.2-13.6-5.2-26c-0.6-1.1-1.2-2.2-1.9-3.3l5.1,3.9l0.1,0.1
		c3,2.1,6.5,3.2,10.1,3.2c1,0,1.9-0.1,2.9-0.2c4.6-0.8,8.6-3.2,11.3-7l1.8-2.5l-40-26.9h38.3c4.8,0,9.3-1.9,12.4-5.3
		c2.2-2.3,3.5-5.2,3.8-8.3c4.5-0.7,8-2.3,10.6-4.7c2.3-2.2,3.7-5.1,4.1-8.5c6.2-1.8,10.8-7.1,11.4-13.8c5.2-2.2,8.9-7,9.7-12.7
		c5-2,9.1-7.1,9.1-15.2V4L380,3.8z"/>
</g>
</svg>
